<?xml version="1.0" encoding="utf-8"?>
<svg viewBox="31.187 93.561 311.87 187.122" xmlns="http://www.w3.org/2000/svg">
  <defs>
    <clipPath id="4f4d3f9566">
      <path d="M 78.5 113.957031 L 142.410156 113.957031 L 142.410156 186.691406 L 78.5 186.691406 Z M 78.5 113.957031 " clip-rule="nonzero"/>
    </clipPath>
    <clipPath id="407692f379">
      <path d="M 232.835938 113.957031 L 296.746094 113.957031 L 296.746094 186.691406 L 232.835938 186.691406 Z M 232.835938 113.957031 " clip-rule="nonzero"/>
    </clipPath>
  </defs>
  <path fill="#a81c30" d="M 220.938 138.246 C 220.938 138.484 220.938 138.992 220.938 138.992 C 220.801 156.68 185.621 180.836 185.621 180.836 C 185.621 180.836 180.965 177.637 175.027 172.715 C 192.973 162.027 205.012 142.418 205.078 119.988 C 214.031 121.219 220.938 128.926 220.938 138.246" fill-opacity="1" fill-rule="nonzero"/>
  <path fill="#d9d9d9" d="M 205.078 119.988 C 205.012 142.418 192.973 162.027 175.027 172.715 C 170.676 169.109 165.645 164.578 161.266 159.703 C 173.848 155.383 183.348 144.426 185.621 131 C 188.43 124.43 194.949 119.809 202.547 119.809 C 203.406 119.809 204.254 119.867 205.078 119.988" fill-opacity="1" fill-rule="nonzero"/>
  <path fill="#db233a" d="M 185.621 131 C 183.348 144.426 173.848 155.383 161.266 159.703 C 155.18 152.949 150.344 145.531 150.309 138.992 C 150.309 138.992 150.309 138.484 150.309 138.246 C 150.309 128.063 158.543 119.809 168.699 119.809 C 176.297 119.809 182.816 124.43 185.621 131" fill-opacity="1" fill-rule="nonzero"/>
  <g clip-path="url(#4f4d3f9566)" transform="matrix(1, 0, 0, 1, -2, 0)">
    <path fill="#211d1d" d="M 140.300781 178.867188 C 124.097656 169.488281 91.226562 150.460938 90.992188 150.324219 C 105.109375 142.152344 137.984375 123.121094 140.300781 121.78125 C 144.953125 119.085938 140.753906 111.847656 136.085938 114.550781 C 119.882812 123.929688 103.683594 133.304688 87.480469 142.683594 C 85.164062 144.023438 82.847656 145.367188 80.53125 146.707031 C 77.820312 148.277344 77.820312 152.371094 80.53125 153.9375 C 96.730469 163.316406 133.765625 184.753906 136.085938 186.097656 C 140.746094 188.796875 144.957031 181.5625 140.300781 178.867188 " fill-opacity="1" fill-rule="nonzero"/>
  </g>
  <g clip-path="url(#407692f379)" transform="matrix(1, 0, 0, 1, -2, 0)">
    <path fill="#211d1d" d="M 294.714844 146.707031 C 278.515625 137.332031 241.480469 115.890625 239.160156 114.550781 C 234.5 111.851562 230.289062 119.085938 234.945312 121.78125 C 251.148438 131.160156 284.019531 150.1875 284.253906 150.324219 C 270.136719 158.496094 237.261719 177.523438 234.945312 178.867188 C 230.292969 181.558594 234.492188 188.796875 239.160156 186.097656 C 255.363281 176.71875 292.398438 155.28125 294.714844 153.9375 C 297.425781 152.371094 297.425781 148.277344 294.714844 146.707031 " fill-opacity="1" fill-rule="nonzero"/>
  </g>
  <g fill="#a81c30" fill-opacity="1" transform="matrix(1, 0, 0, 1, -2, 0)">
    <g transform="translate(104.787493, 243.12013)">
      <g>
        <path d="M 12.839844 -10.078125 L 12.839844 -6.039062 C 12.800781 -4.839844 12.558594 -3.757812 12.121094 -2.839844 C 11.757812 -2.039062 11.199219 -1.28125 10.398438 -0.679688 C 9.597656 -0.0390625 8.519531 0.320312 7.078125 0.320312 C 5.640625 0.320312 4.519531 -0.0390625 3.71875 -0.679688 C 2.917969 -1.28125 2.398438 -2.039062 2.039062 -2.839844 C 1.601562 -3.757812 1.359375 -4.839844 1.320312 -6.039062 L 1.320312 -23.359375 C 1.359375 -24.519531 1.601562 -25.597656 2.039062 -26.519531 C 2.398438 -27.316406 2.917969 -28.117188 3.71875 -28.71875 C 4.519531 -29.316406 5.640625 -29.71875 7.078125 -29.71875 C 8.519531 -29.71875 9.597656 -29.316406 10.398438 -28.71875 C 11.199219 -28.117188 11.757812 -27.316406 12.121094 -26.519531 C 12.558594 -25.597656 12.800781 -24.519531 12.839844 -23.359375 L 12.839844 -19.320312 L 8.800781 -19.320312 L 8.800781 -23.359375 C 8.800781 -24.160156 8.597656 -24.71875 8.160156 -25.199219 C 7.960938 -25.398438 7.597656 -25.519531 7.160156 -25.519531 C 6.398438 -25.519531 6.039062 -24.957031 5.839844 -24.4375 C 5.71875 -24.117188 5.679688 -23.757812 5.640625 -23.359375 L 5.640625 -6.039062 C 5.679688 -5.199219 5.917969 -4.640625 6.320312 -4.199219 C 6.519531 -4 6.800781 -3.878906 7.160156 -3.878906 C 8.078125 -3.878906 8.441406 -4.359375 8.640625 -4.960938 C 8.757812 -5.238281 8.800781 -5.601562 8.800781 -6.039062 L 8.800781 -10.078125 Z M 12.839844 -10.078125 "/>
      </g>
    </g>
  </g>
  <g fill="#a81c30" fill-opacity="1" transform="matrix(1, 0, 0, 1, -2, 0)">
    <g transform="translate(123.826109, 243.12013)">
      <g>
        <path d="M 1.601562 -29.398438 L 5.917969 -29.398438 L 5.917969 -4 L 11.640625 -4 L 11.640625 0 L 1.601562 0 Z M 1.601562 -29.398438 "/>
      </g>
    </g>
  </g>
  <g fill="#a81c30" fill-opacity="1" transform="matrix(1, 0, 0, 1, -2, 0)">
    <g transform="translate(140.824918, 243.12013)">
      <g>
        <path d="M 1.601562 -29.398438 L 11.480469 -29.398438 L 11.480469 -24.957031 L 5.917969 -24.957031 L 5.917969 -17.238281 L 9.917969 -17.238281 L 9.917969 -12.519531 L 5.917969 -12.519531 L 5.917969 -4.441406 L 11.480469 -4.441406 L 11.480469 0 L 1.601562 0 Z M 1.601562 -29.398438 "/>
      </g>
    </g>
  </g>
  <g fill="#a81c30" fill-opacity="1" transform="matrix(1, 0, 0, 1, -2, 0)">
    <g transform="translate(158.303679, 243.12013)">
      <g>
        <path d="M 0.398438 0 L 4.839844 -29.398438 L 10.121094 -29.398438 L 14.558594 0 L 10.359375 0 L 9.558594 -6 L 5.398438 -6 L 4.601562 0 Z M 7.71875 -19.839844 L 7.597656 -20.597656 L 7.359375 -20.597656 L 7.238281 -19.839844 L 6 -10.558594 L 8.960938 -10.558594 Z M 7.71875 -19.839844 "/>
      </g>
    </g>
  </g>
  <g fill="#a81c30" fill-opacity="1" transform="matrix(1, 0, 0, 1, -2, 0)">
    <g transform="translate(178.462182, 243.12013)">
      <g>
        <path d="M 6.160156 -15.320312 L 5.800781 -16.679688 L 5.558594 -16.679688 L 5.558594 0 L 1.601562 0 L 1.601562 -29.398438 L 5.441406 -29.398438 L 9.640625 -14.078125 L 10 -12.71875 L 10.238281 -12.71875 L 10.238281 -29.398438 L 14.199219 -29.398438 L 14.199219 0 L 10.359375 0 Z M 6.160156 -15.320312 "/>
      </g>
    </g>
  </g>
  <g fill="#211d1d" fill-opacity="1" transform="matrix(1, 0, 0, 1, -2, 0)">
    <g transform="translate(199.451549, 243.12013)">
      <g>
        <path d="M 12.839844 -10.078125 L 12.839844 -6.039062 C 12.800781 -4.839844 12.558594 -3.757812 12.121094 -2.839844 C 11.757812 -2.039062 11.199219 -1.28125 10.398438 -0.679688 C 9.597656 -0.0390625 8.519531 0.320312 7.078125 0.320312 C 5.640625 0.320312 4.519531 -0.0390625 3.71875 -0.679688 C 2.917969 -1.28125 2.398438 -2.039062 2.039062 -2.839844 C 1.601562 -3.757812 1.359375 -4.839844 1.320312 -6.039062 L 1.320312 -23.359375 C 1.359375 -24.519531 1.601562 -25.597656 2.039062 -26.519531 C 2.398438 -27.316406 2.917969 -28.117188 3.71875 -28.71875 C 4.519531 -29.316406 5.640625 -29.71875 7.078125 -29.71875 C 8.519531 -29.71875 9.597656 -29.316406 10.398438 -28.71875 C 11.199219 -28.117188 11.757812 -27.316406 12.121094 -26.519531 C 12.558594 -25.597656 12.800781 -24.519531 12.839844 -23.359375 L 12.839844 -19.320312 L 8.800781 -19.320312 L 8.800781 -23.359375 C 8.800781 -24.160156 8.597656 -24.71875 8.160156 -25.199219 C 7.960938 -25.398438 7.597656 -25.519531 7.160156 -25.519531 C 6.398438 -25.519531 6.039062 -24.957031 5.839844 -24.4375 C 5.71875 -24.117188 5.679688 -23.757812 5.640625 -23.359375 L 5.640625 -6.039062 C 5.679688 -5.199219 5.917969 -4.640625 6.320312 -4.199219 C 6.519531 -4 6.800781 -3.878906 7.160156 -3.878906 C 8.078125 -3.878906 8.441406 -4.359375 8.640625 -4.960938 C 8.757812 -5.238281 8.800781 -5.601562 8.800781 -6.039062 L 8.800781 -10.078125 Z M 12.839844 -10.078125 "/>
      </g>
    </g>
  </g>
  <g fill="#211d1d" fill-opacity="1" transform="matrix(1, 0, 0, 1, -2, 0)">
    <g transform="translate(218.490165, 243.12013)">
      <g>
        <path d="M 12.839844 -6.039062 C 12.800781 -4.839844 12.558594 -3.757812 12.121094 -2.839844 C 11.757812 -2.039062 11.199219 -1.28125 10.398438 -0.679688 C 9.597656 -0.0390625 8.519531 0.320312 7.078125 0.320312 C 5.640625 0.320312 4.519531 -0.0390625 3.71875 -0.679688 C 2.917969 -1.28125 2.398438 -2.039062 2.039062 -2.839844 C 1.601562 -3.757812 1.359375 -4.839844 1.320312 -6.039062 L 1.320312 -23.359375 C 1.359375 -24.519531 1.601562 -25.597656 2.039062 -26.519531 C 2.398438 -27.316406 2.917969 -28.117188 3.71875 -28.71875 C 4.519531 -29.316406 5.640625 -29.71875 7.078125 -29.71875 C 8.519531 -29.71875 9.597656 -29.316406 10.398438 -28.71875 C 11.199219 -28.117188 11.757812 -27.316406 12.121094 -26.519531 C 12.558594 -25.597656 12.800781 -24.519531 12.839844 -23.359375 Z M 8.519531 -23.359375 C 8.519531 -24.160156 8.359375 -24.71875 7.960938 -25.199219 C 7.757812 -25.398438 7.441406 -25.519531 7.078125 -25.519531 C 6.320312 -25.519531 5.960938 -24.957031 5.800781 -24.4375 C 5.679688 -24.117188 5.640625 -23.757812 5.640625 -23.359375 L 5.640625 -6.039062 C 5.640625 -5.199219 5.839844 -4.640625 6.238281 -4.199219 C 6.441406 -4 6.71875 -3.878906 7.078125 -3.878906 C 7.839844 -3.878906 8.199219 -4.359375 8.359375 -4.960938 C 8.480469 -5.238281 8.519531 -5.601562 8.519531 -6.039062 Z M 8.519531 -23.359375 "/>
      </g>
    </g>
  </g>
  <g fill="#211d1d" fill-opacity="1" transform="matrix(1, 0, 0, 1, -2, 0)">
    <g transform="translate(237.848746, 243.12013)">
      <g>
        <path d="M 1.601562 0 L 1.601562 -29.398438 L 5 -29.398438 C 9 -29.398438 11.160156 -28.597656 12.320312 -26.359375 C 13.4375 -24.117188 13.597656 -20.4375 13.597656 -14.679688 C 13.597656 -8.917969 13.4375 -5.28125 12.320312 -3.039062 C 11.160156 -0.800781 9 0 5 0 Z M 5.917969 -4.320312 C 7.398438 -4.320312 8.238281 -4.480469 8.679688 -5.917969 C 8.878906 -6.597656 9.039062 -7.640625 9.078125 -9.039062 C 9.121094 -10.4375 9.121094 -12.320312 9.121094 -14.71875 C 9.121094 -17.117188 9.121094 -19 9.078125 -20.398438 C 9.039062 -21.757812 8.878906 -22.796875 8.679688 -23.519531 C 8.238281 -24.917969 7.398438 -25.078125 5.917969 -25.078125 Z M 5.917969 -4.320312 "/>
      </g>
    </g>
  </g>
  <g fill="#211d1d" fill-opacity="1" transform="matrix(1, 0, 0, 1, -2, 0)">
    <g transform="translate(257.927249, 243.12013)">
      <g>
        <path d="M 1.601562 -29.398438 L 11.480469 -29.398438 L 11.480469 -24.957031 L 5.917969 -24.957031 L 5.917969 -17.238281 L 9.917969 -17.238281 L 9.917969 -12.519531 L 5.917969 -12.519531 L 5.917969 -4.441406 L 11.480469 -4.441406 L 11.480469 0 L 1.601562 0 Z M 1.601562 -29.398438 "/>
      </g>
    </g>
  </g>
  <g fill="#211d1d" fill-opacity="1" transform="matrix(1, 0, 0, 1, -2, 0)">
    <g transform="translate(106.088354, 261.001711)">
      <g>
        <path d="M 0.59375 -10.5 L 3.203125 -10.5 C 4.035156 -10.5 4.65625 -10.28125 5.0625 -9.84375 C 5.46875 -9.40625 5.671875 -8.757812 5.671875 -7.90625 L 5.671875 -2.59375 C 5.671875 -1.738281 5.46875 -1.09375 5.0625 -0.65625 C 4.65625 -0.21875 4.035156 0 3.203125 0 L 0.59375 0 Z M 2.25 -9 L 2.25 -1.5 L 3.1875 -1.5 C 3.4375 -1.5 3.632812 -1.570312 3.78125 -1.71875 C 3.9375 -1.875 4.015625 -2.140625 4.015625 -2.515625 L 4.015625 -7.984375 C 4.015625 -8.359375 3.9375 -8.617188 3.78125 -8.765625 C 3.632812 -8.921875 3.4375 -9 3.1875 -9 Z M 2.25 -9 "/>
      </g>
    </g>
  </g>
  <g fill="#211d1d" fill-opacity="1" transform="matrix(1, 0, 0, 1, -2, 0)">
    <g transform="translate(121.808344, 261.001711)">
      <g>
        <path d="M 2.25 -6.078125 L 4.515625 -6.078125 L 4.515625 -4.578125 L 2.25 -4.578125 L 2.25 -1.5 L 5.09375 -1.5 L 5.09375 0 L 0.59375 0 L 0.59375 -10.5 L 5.09375 -10.5 L 5.09375 -9 L 2.25 -9 Z M 2.25 -6.078125 "/>
      </g>
    </g>
  </g>
  <g fill="#211d1d" fill-opacity="1" transform="matrix(1, 0, 0, 1, -2, 0)">
    <g transform="translate(136.928343, 261.001711)">
      <g>
        <path d="M 3.09375 -1.9375 L 4.34375 -10.5 L 5.859375 -10.5 L 4.25 0 L 1.78125 0 L 0.171875 -10.5 L 1.828125 -10.5 Z M 3.09375 -1.9375 "/>
      </g>
    </g>
  </g>
  <g fill="#211d1d" fill-opacity="1" transform="matrix(1, 0, 0, 1, -2, 0)">
    <g transform="translate(152.558337, 261.001711)">
      <g>
        <path d="M 2.25 -6.078125 L 4.515625 -6.078125 L 4.515625 -4.578125 L 2.25 -4.578125 L 2.25 -1.5 L 5.09375 -1.5 L 5.09375 0 L 0.59375 0 L 0.59375 -10.5 L 5.09375 -10.5 L 5.09375 -9 L 2.25 -9 Z M 2.25 -6.078125 "/>
      </g>
    </g>
  </g>
  <g fill="#211d1d" fill-opacity="1" transform="matrix(1, 0, 0, 1, -2, 0)">
    <g transform="translate(167.678336, 261.001711)">
      <g>
        <path d="M 0.59375 -10.5 L 2.25 -10.5 L 2.25 -1.5 L 4.96875 -1.5 L 4.96875 0 L 0.59375 0 Z M 0.59375 -10.5 "/>
      </g>
    </g>
  </g>
  <g fill="#211d1d" fill-opacity="1" transform="matrix(1, 0, 0, 1, -2, 0)">
    <g transform="translate(182.363336, 261.001711)">
      <g>
        <path d="M 2.109375 -2.421875 C 2.109375 -2.035156 2.1875 -1.765625 2.34375 -1.609375 C 2.5 -1.453125 2.707031 -1.375 2.96875 -1.375 C 3.226562 -1.375 3.4375 -1.453125 3.59375 -1.609375 C 3.75 -1.765625 3.828125 -2.035156 3.828125 -2.421875 L 3.828125 -8.078125 C 3.828125 -8.460938 3.75 -8.734375 3.59375 -8.890625 C 3.4375 -9.046875 3.226562 -9.125 2.96875 -9.125 C 2.707031 -9.125 2.5 -9.046875 2.34375 -8.890625 C 2.1875 -8.734375 2.109375 -8.460938 2.109375 -8.078125 Z M 0.46875 -7.984375 C 0.46875 -8.828125 0.679688 -9.476562 1.109375 -9.9375 C 1.535156 -10.394531 2.15625 -10.625 2.96875 -10.625 C 3.78125 -10.625 4.398438 -10.394531 4.828125 -9.9375 C 5.253906 -9.476562 5.46875 -8.828125 5.46875 -7.984375 L 5.46875 -2.515625 C 5.46875 -1.671875 5.253906 -1.019531 4.828125 -0.5625 C 4.398438 -0.101562 3.78125 0.125 2.96875 0.125 C 2.15625 0.125 1.535156 -0.101562 1.109375 -0.5625 C 0.679688 -1.019531 0.46875 -1.671875 0.46875 -2.515625 Z M 0.46875 -7.984375 "/>
      </g>
    </g>
  </g>
  <g fill="#211d1d" fill-opacity="1" transform="matrix(1, 0, 0, 1, -2, 0)">
    <g transform="translate(197.903336, 261.001711)">
      <g>
        <path d="M 3.03125 -10.5 C 3.863281 -10.5 4.476562 -10.28125 4.875 -9.84375 C 5.28125 -9.40625 5.484375 -8.757812 5.484375 -7.90625 L 5.484375 -6.546875 C 5.484375 -5.691406 5.28125 -5.039062 4.875 -4.59375 C 4.476562 -4.15625 3.863281 -3.9375 3.03125 -3.9375 L 2.25 -3.9375 L 2.25 0 L 0.59375 0 L 0.59375 -10.5 Z M 2.25 -9 L 2.25 -5.4375 L 3.03125 -5.4375 C 3.289062 -5.4375 3.488281 -5.503906 3.625 -5.640625 C 3.769531 -5.785156 3.84375 -6.050781 3.84375 -6.4375 L 3.84375 -8.015625 C 3.84375 -8.390625 3.769531 -8.644531 3.625 -8.78125 C 3.488281 -8.925781 3.289062 -9 3.03125 -9 Z M 2.25 -9 "/>
      </g>
    </g>
  </g>
  <g fill="#211d1d" fill-opacity="1" transform="matrix(1, 0, 0, 1, -2, 0)">
    <g transform="translate(213.233337, 261.001711)">
      <g>
        <path d="M 4.09375 -3.046875 L 5.21875 -10.5 L 7.515625 -10.5 L 7.515625 0 L 5.953125 0 L 5.953125 -7.53125 L 4.8125 0 L 3.25 0 L 2.03125 -7.421875 L 2.03125 0 L 0.578125 0 L 0.578125 -10.5 L 2.875 -10.5 Z M 4.09375 -3.046875 "/>
      </g>
    </g>
  </g>
  <g fill="#211d1d" fill-opacity="1" transform="matrix(1, 0, 0, 1, -2, 0)">
    <g transform="translate(230.948332, 261.001711)">
      <g>
        <path d="M 2.25 -6.078125 L 4.515625 -6.078125 L 4.515625 -4.578125 L 2.25 -4.578125 L 2.25 -1.5 L 5.09375 -1.5 L 5.09375 0 L 0.59375 0 L 0.59375 -10.5 L 5.09375 -10.5 L 5.09375 -9 L 2.25 -9 Z M 2.25 -6.078125 "/>
      </g>
    </g>
  </g>
  <g fill="#211d1d" fill-opacity="1" transform="matrix(1, 0, 0, 1, -2, 0)">
    <g transform="translate(246.068334, 261.001711)">
      <g>
        <path d="M 2.0625 -7.609375 L 2.0625 0 L 0.578125 0 L 0.578125 -10.5 L 2.65625 -10.5 L 4.34375 -4.21875 L 4.34375 -10.5 L 5.8125 -10.5 L 5.8125 0 L 4.125 0 Z M 2.0625 -7.609375 "/>
      </g>
    </g>
  </g>
  <g fill="#211d1d" fill-opacity="1" transform="matrix(1, 0, 0, 1, -2, 0)">
    <g transform="translate(262.07333, 261.001711)">
      <g>
        <path d="M 0.125 -10.5 L 5.21875 -10.5 L 5.21875 -9 L 3.5 -9 L 3.5 0 L 1.84375 0 L 1.84375 -9 L 0.125 -9 Z M 0.125 -10.5 "/>
      </g>
    </g>
  </g>
</svg>